# xmcd
#
# Track frame offsets:
#	150
#	18014
#	35745
#	52587
#	74045
#	89333
#	107366
#	122509
#	143841
#	164123
#
# Disc length: 2424 seconds
#
# Revision: 0
# Processed by: cddbd v1.5.2PL0 Copyright (c) Steve Scherf et al.
# Submitted via: EZCDAudioConverter 5.5.0.1
#
DISCID=8009760a
DTITLE=Daniela Castillo
DYEAR=2003
DGENRE=Pop
TTITLE0=Tú Volveras
TTITLE1=Quiero Ser Tú
TTITLE2=Trampa de Cristal
TTITLE3=Encontrarás
TTITLE4=Dueña de mi corazón
TTITLE5=Volver a Respirar
TTITLE6=No intentes Herirme
TTITLE7=Por muchas lunas llenas
TTITLE8=Amigos o que
TTITLE9=Una canción de Amor
EXTD=
EXTT0=
EXTT1=
EXTT2=
EXTT3=
EXTT4=
EXTT5=
EXTT6=
EXTT7=
EXTT8=
EXTT9=
PLAYORDER=
